<svg width="254" height="94" viewBox="0 0 254 94" fill="none" xmlns="http://www.w3.org/2000/svg">
<path d="M254 23.3942C253.486 -7.97228 171.213 -8.17955 170.025 25.0869C169.254 46.2282 186.698 60.1843 187.051 78.8383C187.212 87.1636 199.644 91.1016 212.205 90.998C212.334 90.998 212.462 90.998 212.623 90.998C214.39 90.998 216.124 90.8944 217.827 90.6871C228.942 89.5126 238.676 85.1255 238.227 77.7674C236.62 53.1026 252.329 42.1865 254 23.3942ZM220.301 83.0182C220.301 86.9563 217.12 90.169 213.233 90.169H209.699C205.812 90.169 202.632 86.9563 202.632 83.0182V33.8612C202.632 29.9231 205.812 26.7105 209.699 26.7105H213.233C217.12 26.7105 220.301 29.9231 220.301 33.8612V83.0182ZM211.466 23.9124C206.037 23.9124 201.636 18.938 201.636 12.8235C201.636 6.70919 206.037 1.73476 211.466 1.73476C216.895 1.73476 221.297 6.70919 221.297 12.8235C221.297 18.938 216.895 23.9124 211.466 23.9124Z" fill="#7CB124"/>
<path d="M28.344 90.968V15.96H3V7H64.44V15.96H39.096V90.968H28.344Z" fill="black" stroke="black" stroke-width="5"/>
<path d="M82 90.968V7H94.8L110.928 51.8C111.952 54.7013 112.933 57.6453 113.872 60.632C114.896 63.5333 115.92 66.4347 116.944 69.336H117.456C118.48 66.4347 119.419 63.5333 120.272 60.632C121.211 57.6453 122.192 54.7013 123.216 51.8L139.088 7H152.016V90.968H142.032V44.76C142.032 41.0053 142.203 36.8667 142.544 32.344C142.885 27.736 143.184 23.5973 143.44 19.928H142.928L136.272 39L120.4 82.52H113.36L97.488 39L90.832 19.928H90.32C90.576 23.5973 90.832 27.736 91.088 32.344C91.4293 36.8667 91.6 41.0053 91.6 44.76V90.968H82Z" fill="black" stroke="black" stroke-width="5"/>
</svg>
